<!DOCTYPE svg PUBLIC "-//W3C//DTD SVG 1.1//EN" "http://www.w3.org/Graphics/SVG/1.1/DTD/svg11.dtd">
<!-- Uploaded to: SVG Repo, www.svgrepo.com, Transformed by: SVG Repo Mixer Tools -->
<svg width="192px" height="192px" viewBox="-2.4 -2.4 28.80 28.80" fill="none" xmlns="http://www.w3.org/2000/svg">
<g id="SVGRepo_bgCarrier" stroke-width="0">
<path transform="translate(-2.4, -2.4), scale(0.8999999999999999)" d="M16,29.015500616282225C18.58305519977534,28.7763161693299,21.13124360017587,28.72280662133595,23.507035697127872,27.681175555741838C26.20331901525125,26.499029832888542,29.375224990571358,25.344041376767425,30.54050963493777,22.640428249995292C31.704329146846277,19.94021442258303,30.135837088758574,16.916581219815416,29.370296649780396,14.077641557487869C28.691774574719407,11.561401875588656,27.952387768366346,9.088176025478086,26.33500161360614,7.0446701239697695C24.66579471757264,4.935690686472019,22.682141960259266,2.721717330156115,20.02968912952199,2.276139154896226C17.433012554335658,1.8399306777072004,15.031270259687224,3.533960186543687,12.697816970887017,4.753797397273251C10.752982577235542,5.770479999607471,9.399320482927624,7.445263660820877,7.637812145773882,8.754122977461375C5.265503842305861,10.516826996197294,1.5315670160449852,10.990555247833825,0.5515835633064228,13.778853039808292C-0.40920058845040574,16.512524023151222,1.8063597855172273,19.296563471922877,3.0054243074151596,21.934423874552984C4.206594518687667,24.576916650604197,4.994140901525117,27.77049136610211,7.542961430240206,29.159408879971032C10.06984723214784,30.536373600035297,13.134553784035134,29.28083376460085,16,29.015500616282225" fill="#352F44" strokewidth="0"/>
</g>
<g id="SVGRepo_tracerCarrier" stroke-linecap="round" stroke-linejoin="round"/>
<g id="SVGRepo_iconCarrier"> <path d="M7 8L3 11.6923L7 16M17 8L21 11.6923L17 16M14 4L10 20" stroke="#FAF0E6" stroke-width="2" stroke-linecap="round" stroke-linejoin="round"/> </g>
</svg>