<!DOCTYPE svg PUBLIC "-//W3C//DTD SVG 1.1//EN" "http://www.w3.org/Graphics/SVG/1.1/DTD/svg11.dtd">
<!-- Uploaded to: SVG Repo, www.svgrepo.com, Transformed by: SVG Repo Mixer Tools -->
<svg version="1.1" id="Uploaded to svgrepo.com" xmlns="http://www.w3.org/2000/svg" xmlns:xlink="http://www.w3.org/1999/xlink" width="192px" height="192px" viewBox="-3.2 -3.2 38.40 38.40" xml:space="preserve" fill="#000000">
<g id="SVGRepo_bgCarrier" stroke-width="0">
<path transform="translate(-3.2, -3.2), scale(1.2)" d="M16,24.70442369952798C17.9928123137899,24.752529731474027,19.588570708020775,28.045601564525885,21.372356009932997,27.155812204629854C23.170944526333756,26.25863869220715,21.417467067848445,22.890048789330336,22.714851624665407,21.35491548096444C24.07154726980242,19.749602188755574,27.47338441528167,20.71485872227064,28.407167538038593,18.831855026222613C29.240601291687913,17.15120906005924,27.018342359594246,15.408981682140153,26.566319571212965,13.588306509549714C26.123992254603316,11.806683139644651,26.71990155210453,9.779563141503798,25.76977558710861,8.208863953927917C24.805680916925542,6.615072424181347,23.17975805464246,5.1517545606606205,21.330066385369097,4.932003105630098C19.407721669719667,4.703620151134688,17.898629026661723,7.426028761599686,16,7.048171911976841C13.400570405994674,6.530844796771915,12.164569930515478,2.216695512355652,9.539959441968236,2.58558755852194C7.343063521884851,2.894363826356833,7.597001263559945,6.4864771645048265,6.456723005863264,8.389490554442293C5.469230357795746,10.037519637740987,3.930262269559897,11.293682406099084,3.2463217115873846,13.089056156198481C2.51516632159703,15.00837089653755,1.7082585372952788,17.16691858393221,2.3726526470080564,19.11035310656829C3.04030080821767,21.063306130234015,5.248830925569046,21.96302258972095,6.76044501621281,23.368299224686073C8.077852581459528,24.59303117289057,8.97087649206154,26.64197881553251,10.751116964450246,26.899417931424615C12.65187351223618,27.174284778222884,14.080031474885352,24.658076099924422,16,24.70442369952798" fill="#352F44" strokewidth="0"/>
</g>
<g id="SVGRepo_tracerCarrier" stroke-linecap="round" stroke-linejoin="round"/>
<g id="SVGRepo_iconCarrier"> <style type="text/css"> .blueprint_een{fill:#FAF0E6;} </style> <path class="blueprint_een" d="M8,9H4v3h4V9z M7,11H5v-1h2V11z M8,13H4v3h4V13z M7,15H5v-1h2V15z M6,17c-1.657,0-3,1.343-3,3 s1.343,3,3,3s3-1.343,3-3S7.657,17,6,17z M6,22c-1.103,0-2-0.897-2-2c0-1.103,0.897-2,2-2s2,0.897,2,2C8,21.103,7.103,22,6,22z M21.646,11.646l0.707,0.707l-2,2l-0.707-0.707L21.646,11.646z M31,4h-1.586l-1.707-1.707c-0.391-0.391-1.023-0.391-1.414,0 L24.586,4H1C0.448,4,0,4.448,0,5v22c0,0.552,0.448,1,1,1h30c0.552,0,1-0.448,1-1V5C32,4.448,31.552,4,31,4z M16,14v4h4l8-8v13H11V9 h10L16,14z M17,14.707L19.293,17H17V14.707z M20.146,16.439l-2.586-2.586L27,4.414L29.586,7L20.146,16.439z M2,26V6h22l-2,2H10v16 h19V9l1-1v18H2z"/> </g>
</svg>