<svg width="23" height="22" viewBox="0 0 23 22" fill="none" xmlns="http://www.w3.org/2000/svg">
<g clip-path="url(#clip0_88_381)">
<path d="M14.8884 8.19512H8.28583C7.24912 8.15471 6.26833 7.71446 5.54913 6.96669C4.82994 6.21892 4.42822 5.22173 4.42822 4.18423C4.42822 3.14674 4.82994 2.14954 5.54913 1.40177C6.26833 0.654 7.24912 0.213747 8.28583 0.17334H14.8884C15.9251 0.213747 16.9059 0.654 17.6251 1.40177C18.3443 2.14954 18.746 3.14674 18.746 4.18423C18.746 5.22173 18.3443 6.21892 17.6251 6.96669C16.9059 7.71446 15.9251 8.15471 14.8884 8.19512ZM8.28583 1.69608C7.64722 1.72768 7.04522 2.00362 6.60442 2.46678C6.16362 2.92993 5.91777 3.54484 5.91777 4.18423C5.91777 4.82362 6.16362 5.43853 6.60442 5.90168C7.04522 6.36484 7.64722 6.64078 8.28583 6.67238H14.8884C15.527 6.64078 16.129 6.36484 16.5698 5.90168C17.0106 5.43853 17.2565 4.82362 17.2565 4.18423C17.2565 3.54484 17.0106 2.92993 16.5698 2.46678C16.129 2.00362 15.527 1.72768 14.8884 1.69608H8.28583Z" fill="#FAF0E6"/>
<path d="M11.5382 14.6882H8.28568C7.22273 14.6882 6.20332 14.2659 5.4517 13.5143C4.70009 12.7627 4.27783 11.7433 4.27783 10.6803C4.27783 9.61738 4.70009 8.59797 5.4517 7.84636C6.20332 7.09474 7.22273 6.67249 8.28568 6.67249C8.48761 6.67249 8.68126 6.7527 8.82405 6.89549C8.96683 7.03827 9.04705 7.23193 9.04705 7.43385C9.04705 7.63578 8.96683 7.82944 8.82405 7.97222C8.68126 8.11501 8.48761 8.19522 8.28568 8.19522C7.62659 8.19522 6.99449 8.45705 6.52844 8.92309C6.06239 9.38914 5.80057 10.0212 5.80057 10.6803C5.80057 11.3394 6.06239 11.9715 6.52844 12.4376C6.99449 12.9036 7.62659 13.1654 8.28568 13.1654H10.7769V7.43385C10.7769 7.23193 10.8571 7.03827 10.9999 6.89549C11.1427 6.7527 11.3363 6.67249 11.5382 6.67249C11.7402 6.67249 11.9338 6.7527 12.0766 6.89549C12.2194 7.03827 12.2996 7.23193 12.2996 7.43385V13.9268C12.2996 14.1287 12.2194 14.3224 12.0766 14.4652C11.9338 14.608 11.7402 14.6882 11.5382 14.6882Z" fill="#FAF0E6"/>
<path d="M8.33433 21.1872C7.79446 21.2082 7.2559 21.1201 6.75092 20.928C6.24594 20.7359 5.78494 20.4438 5.39554 20.0693C5.00613 19.6948 4.69635 19.2455 4.48474 18.7484C4.27313 18.2513 4.16406 17.7166 4.16406 17.1763C4.16406 16.636 4.27313 16.1013 4.48474 15.6042C4.69635 15.1071 5.00613 14.6578 5.39554 14.2833C5.78494 13.9087 6.24594 13.6167 6.75092 13.4246C7.2559 13.2325 7.79446 13.1444 8.33433 13.1654C8.53626 13.1654 8.72992 13.2456 8.8727 13.3884C9.01548 13.5312 9.0957 13.7248 9.0957 13.9268C9.0957 14.1287 9.01548 14.3224 8.8727 14.4651C8.72992 14.6079 8.53626 14.6881 8.33433 14.6881C7.84136 14.6869 7.35911 14.832 6.94864 15.105C6.53816 15.378 6.21791 15.7667 6.02842 16.2218C5.83894 16.6769 5.78873 17.178 5.88417 17.6616C5.9796 18.1452 6.21638 18.5897 6.56454 18.9387C6.9127 19.2877 7.35658 19.5256 7.83999 19.6222C8.3234 19.7188 8.82461 19.6699 9.28017 19.4815C9.73573 19.2931 10.1252 18.9738 10.3992 18.564C10.6732 18.1542 10.8194 17.6723 10.8194 17.1793V13.9268C10.8194 13.7248 10.8997 13.5312 11.0424 13.3884C11.1852 13.2456 11.3789 13.1654 11.5808 13.1654C11.7827 13.1654 11.9764 13.2456 12.1192 13.3884C12.262 13.5312 12.3422 13.7248 12.3422 13.9268V17.1793C12.3406 18.2418 11.9178 19.2603 11.1665 20.0115C10.4153 20.7628 9.39678 21.1856 8.33433 21.1872Z" fill="#FAF0E6"/>
<path d="M14.8332 14.7916C14.0297 14.7916 13.2442 14.5533 12.5761 14.1069C11.908 13.6605 11.3873 13.026 11.0798 12.2836C10.7723 11.5413 10.6918 10.7244 10.8486 9.93634C11.0053 9.14826 11.3923 8.42436 11.9604 7.85619C12.5286 7.28801 13.2525 6.90108 14.0406 6.74432C14.8287 6.58757 15.6455 6.66802 16.3879 6.97551C17.1302 7.28301 17.7647 7.80373 18.2112 8.47183C18.6576 9.13993 18.8958 9.92541 18.8958 10.7289C18.8958 11.2624 18.7908 11.7907 18.5866 12.2836C18.3824 12.7765 18.0832 13.2244 17.7059 13.6017C17.3287 13.9789 16.8808 14.2782 16.3879 14.4823C15.895 14.6865 15.3667 14.7916 14.8332 14.7916ZM14.8332 8.19509C14.3306 8.19509 13.8393 8.34421 13.4214 8.62357C13.0036 8.90293 12.6781 9.29998 12.486 9.76444C12.2939 10.2289 12.244 10.7399 12.3425 11.2328C12.441 11.7256 12.6835 12.1782 13.0393 12.5332C13.3952 12.8881 13.8483 13.1296 14.3414 13.2269C14.8345 13.3242 15.3454 13.273 15.8094 13.0799C16.2734 12.8867 16.6697 12.5602 16.948 12.1417C17.2264 11.7232 17.3743 11.2315 17.3731 10.7289C17.3715 10.0564 17.1032 9.41187 16.627 8.93686C16.1509 8.46185 15.5057 8.19509 14.8332 8.19509Z" fill="#FAF0E6"/>
<path d="M11.538 8.19512C11.438 8.19432 11.3392 8.17384 11.2471 8.13484C11.155 8.09584 11.0716 8.03909 11.0014 7.96782C10.9313 7.89656 10.8759 7.81217 10.8384 7.71949C10.8008 7.62681 10.7819 7.52765 10.7827 7.42766L10.8315 0.928618C10.8331 0.728798 10.9131 0.537614 11.0544 0.396315C11.1957 0.255017 11.3869 0.174932 11.5867 0.17334C11.6867 0.174137 11.7856 0.19462 11.8776 0.23362C11.9697 0.27262 12.0532 0.329374 12.1233 0.400639C12.1935 0.471905 12.2489 0.556288 12.2864 0.648969C12.3239 0.74165 12.3428 0.840814 12.342 0.9408L12.2933 7.43984C12.2902 7.63918 12.2096 7.82947 12.0686 7.97043C11.9276 8.1114 11.7374 8.19198 11.538 8.19512Z" fill="#FAF0E6"/>
</g>
<defs>
<clipPath id="clip0_88_381">
<rect width="21.3183" height="21.3183" fill="white" transform="translate(0.927734 0.0209961)"/>
</clipPath>
</defs>
</svg>
