<!DOCTYPE svg PUBLIC "-//W3C//DTD SVG 1.1//EN" "http://www.w3.org/Graphics/SVG/1.1/DTD/svg11.dtd">
<!-- Uploaded to: SVG Repo, www.svgrepo.com, Transformed by: SVG Repo Mixer Tools -->
<svg width="80px" height="80px" viewBox="-4.8 -4.8 57.60 57.60" xmlns="http://www.w3.org/2000/svg" fill="#FAF0E6" stroke="#FAF0E6" stroke-width="0.00048000000000000007">
<g id="SVGRepo_bgCarrier" stroke-width="0">
<path transform="translate(-4.8, -4.8), scale(1.7999999999999998)" d="M16,29.92350058630109C17.935522930222756,30.48547887177649,20.318762852066037,30.552047197325827,21.955145424177495,29.37547561665007C23.657919408184664,28.151168103210964,23.310996708918218,25.397554393467793,24.59787580397374,23.741562146268496C25.76957539098732,22.233786132502885,28.28312948065218,21.988581235345546,29.053359695049114,20.241293666934222C29.812433661553825,18.519314341289586,29.03317310972759,16.506212742789074,28.59396842284876,14.676320579956405C28.185752373656094,12.975538754360217,27.518659393315634,11.366917530633561,26.570574631743483,9.897075890873872C25.646556333252132,8.464545144603537,24.271880691156916,7.455168896544329,23.12351334864696,6.19532501668726C21.737467747868433,4.674730514646634,20.979051319972765,2.36494667755116,19.050763341893397,1.6472869248352424C17.16097472306304,0.9439556546657358,14.902128489548488,1.521371572768488,13.124987110404803,2.4741277944717552C11.409045330584464,3.3940738527826406,11.052496425306517,5.9022472810584645,9.350509102602219,6.847760948484051C7.331350714355294,7.969474269915282,4.320456125932488,6.696720884989541,2.6508621479907912,8.292871667693051C1.1162514620346,9.75997689201465,1.5117242274692826,12.344573173358999,1.384035363630165,14.463800214224166C1.2596479098082436,16.52823440024615,1.143388169677635,18.657316810369554,1.9106573902769224,20.577904920872562C2.6651121924797874,22.466416650680983,3.961164382045392,24.221103042613773,5.702016983435696,25.27234555622496C7.375406015813242,26.282849082624068,9.62672753323042,25.50854875937499,11.40826990298951,26.313194653728313C13.202307540147581,27.12348412175247,14.109536067766783,29.374605162330454,16,29.92350058630109" fill="#352F44" strokewidth="0"/>
</g>
<g id="SVGRepo_tracerCarrier" stroke-linecap="round" stroke-linejoin="round"/>
<g id="SVGRepo_iconCarrier"> <title>computer-code</title> <g id="Layer_2" data-name="Layer 2"> <g id="invisible_box" data-name="invisible box"> <rect width="48" height="48" fill="none"/> <rect width="48" height="48" fill="none"/> <rect width="48" height="48" fill="none"/> </g> <g id="icons_Q2" data-name="icons Q2"> <g> <path d="M7,34H41a2,2,0,0,0,2-2V8a2,2,0,0,0-2-2H7A2,2,0,0,0,5,8V32A2,2,0,0,0,7,34ZM39,10V30H9V10"/> <path d="M44,38H4a2,2,0,0,0,0,4H44a2,2,0,0,0,0-4Z"/> <path d="M29.5,12.6a2.1,2.1,0,0,0-2.7-.2,1.9,1.9,0,0,0-.2,3L31.2,20l-4.6,4.6a1.9,1.9,0,0,0,.2,3,2.1,2.1,0,0,0,2.7-.2l5.9-6a1.9,1.9,0,0,0,0-2.8Z"/> <path d="M21.2,12.4a2.1,2.1,0,0,0-2.7.2l-5.9,6a1.9,1.9,0,0,0,0,2.8l5.9,6a2.1,2.1,0,0,0,2.7.2,1.9,1.9,0,0,0,.2-3L16.8,20l4.6-4.6A1.9,1.9,0,0,0,21.2,12.4Z"/> </g> </g> </g> </g>
</svg>