<svg width="19" height="19" viewBox="0 0 19 19" fill="none" xmlns="http://www.w3.org/2000/svg">
<g clip-path="url(#clip0_88_395)">
<path d="M11.5947 0.901978C10.9878 0.901978 10.4975 1.39232 10.4975 1.99924C10.4975 2.60617 10.9878 3.09651 11.5947 3.09651H14.4305L7.52799 10.0024C7.09937 10.4311 7.09937 11.1271 7.52799 11.5558C7.95661 11.9844 8.65269 11.9844 9.08131 11.5558L15.9838 4.64983V7.48558C15.9838 8.0925 16.4741 8.58285 17.0811 8.58285C17.688 8.58285 18.1783 8.0925 18.1783 7.48558V1.99924C18.1783 1.39232 17.688 0.901978 17.0811 0.901978H11.5947ZM3.36524 1.99924C1.84964 1.99924 0.62207 3.22681 0.62207 4.74241V15.7151C0.62207 17.2307 1.84964 18.4582 3.36524 18.4582H14.3379C15.8535 18.4582 17.0811 17.2307 17.0811 15.7151V11.8746C17.0811 11.2677 16.5907 10.7774 15.9838 10.7774C15.3769 10.7774 14.8865 11.2677 14.8865 11.8746V15.7151C14.8865 16.0168 14.6397 16.2637 14.3379 16.2637H3.36524C3.06349 16.2637 2.8166 16.0168 2.8166 15.7151V4.74241C2.8166 4.44066 3.06349 4.19378 3.36524 4.19378H7.20567C7.8126 4.19378 8.30294 3.70344 8.30294 3.09651C8.30294 2.48959 7.8126 1.99924 7.20567 1.99924H3.36524Z" fill="#FAF0E6"/>
</g>
<defs>
<clipPath id="clip0_88_395">
<rect width="17.5563" height="17.5563" fill="white" transform="translate(0.62207 0.901978)"/>
</clipPath>
</defs>
</svg>
