<!DOCTYPE svg PUBLIC "-//W3C//DTD SVG 1.1//EN" "http://www.w3.org/Graphics/SVG/1.1/DTD/svg11.dtd">
<!-- Uploaded to: SVG Repo, www.svgrepo.com, Transformed by: SVG Repo Mixer Tools -->
<svg version="1.1" id="Layer_1" xmlns="http://www.w3.org/2000/svg" xmlns:xlink="http://www.w3.org/1999/xlink" viewBox="-51.2 -51.2 614.40 614.40" xml:space="preserve" width="192px" height="192px" fill="#ffffff">
<g id="SVGRepo_bgCarrier" stroke-width="0">
<path transform="translate(-51.2, -51.2), scale(19.2)" d="M16,28.633460853781017C18.398442292016973,28.8018884693514,20.620398011584186,31.08057738004107,22.911975899136422,30.352865847149097C25.13623072755336,29.646533367890193,26.37236753978612,27.163598985119755,27.330127489382594,25.03547516542762C28.205424699121462,23.09058193603318,27.830660385570546,20.879903758263097,28.125888258262286,18.76765486613251C28.397095192842787,16.827267117906775,28.98884559352374,14.990168195385838,29.007984688986323,13.031012379771889C29.030543278310258,10.721823235883274,29.61747966489053,8.091930231571077,28.24834709603948,6.232269133113444C26.88691751152037,4.3830708200938595,24.133160658792352,4.394278096457543,22.008338987577577,3.5235555344353973C19.997616734075564,2.699589337270586,18.1391158335832,0.8308253270981033,16.000000000000004,1.213065729609557C13.797042024822927,1.6067141379507661,12.73162904056779,4.154715211402068,10.943797681808615,5.500687700876934C9.50520369656853,6.583736120500268,7.818808270621375,7.209783723649699,6.462044952411738,8.393734665191754C4.926694271643156,9.733526108324156,2.991155455304929,10.94251973259973,2.4548329668979676,12.90840401516987C1.9190033694301833,14.872481611331564,3.3540040448143853,16.807658338153438,3.6158005612895465,18.826612707431817C3.906198474020443,21.066138819663315,2.9847844172544855,23.529145235206386,4.087558356634409,25.499855207198628C5.193976378975638,27.477077330389015,7.349035626750077,28.837451134992353,9.540229504511304,29.413851650828953C11.664412750492957,29.97262480693427,13.808948240986773,28.479596979469683,16,28.633460853781017" fill="#352F44" strokewidth="0"/>
</g>
<g id="SVGRepo_tracerCarrier" stroke-linecap="round" stroke-linejoin="round"/>
<g id="SVGRepo_iconCarrier"> <polygon style="fill:#FAF0E6;" points="187.282,163.138 207.786,195.838 245.222,205.235 220.458,234.841 223.09,273.348 187.282,258.945 151.472,273.348 154.104,234.841 129.342,205.235 166.778,195.838 "/> <g> <path style="fill:#FAF0E6;" d="M151.474,288.407c-3.134,0-6.24-0.977-8.853-2.876c-4.194-3.048-6.526-8.038-6.173-13.21 l2.22-32.465l-20.878-24.958c-3.325-3.977-4.372-9.385-2.771-14.315c1.602-4.93,5.627-8.69,10.656-9.952l31.562-7.921l17.286-27.57 c2.754-4.393,7.575-7.06,12.759-7.06s10.005,2.667,12.759,7.06l17.286,27.57l31.56,7.921c5.028,1.262,9.053,5.022,10.656,9.952 c1.601,4.93,0.554,10.339-2.771,14.315l-20.878,24.96l2.22,32.465c0.354,5.173-1.977,10.163-6.173,13.21 c-4.195,3.046-9.662,3.723-14.47,1.789l-30.19-12.143l-30.191,12.143C155.278,288.048,153.371,288.407,151.474,288.407z M156.3,213.993l9.356,11.184c2.492,2.982,3.736,6.811,3.473,10.689l-0.994,14.548l13.529-5.442c3.607-1.45,7.632-1.45,11.238,0 l13.527,5.441l-0.994-14.547c-0.265-3.878,0.979-7.707,3.473-10.689l9.356-11.184l-14.143-3.549 c-3.769-0.946-7.028-3.313-9.093-6.606l-7.746-12.354l-7.746,12.354c-2.065,3.293-5.323,5.659-9.093,6.606L156.3,213.993z"/> <path style="fill:#FAF0E6;" d="M382.658,206.982h-85.835c-8.315,0-15.059-6.742-15.059-15.059c0-8.317,6.743-15.059,15.059-15.059 h85.835c8.315,0,15.059,6.742,15.059,15.059S390.975,206.982,382.658,206.982z"/> <path style="fill:#FAF0E6;" d="M352.523,259.622h-55.698c-8.315,0-15.059-6.742-15.059-15.059c0-8.317,6.743-15.059,15.059-15.059 h55.698c8.315,0,15.059,6.742,15.059,15.059C367.581,252.88,360.838,259.622,352.523,259.622z"/> </g> <polygon style="fill:#FAF0E6;" points="187.282,325.887 207.786,358.587 245.222,367.982 220.458,397.589 223.09,436.096 187.282,421.692 151.472,436.096 154.104,397.589 129.342,367.982 166.778,358.587 "/> <g> <path style="fill:#FAF0E6;" d="M223.09,451.155c-1.897,0-3.804-0.358-5.617-1.087l-30.19-12.143l-30.191,12.143 c-4.808,1.934-10.276,1.257-14.47-1.789c-4.194-3.048-6.527-8.038-6.173-13.21l2.22-32.465l-20.879-24.96 c-3.325-3.977-4.372-9.385-2.771-14.315c1.602-4.93,5.627-8.69,10.656-9.952l31.562-7.921l17.286-27.57 c2.754-4.393,7.575-7.06,12.759-7.06s10.005,2.667,12.759,7.06l17.286,27.57l31.56,7.921c5.028,1.262,9.053,5.022,10.656,9.952 c1.601,4.93,0.554,10.338-2.771,14.315l-20.878,24.96l2.22,32.465c0.354,5.173-1.977,10.163-6.173,13.21 C229.329,450.178,226.224,451.155,223.09,451.155z M156.3,376.742l9.356,11.184c2.492,2.982,3.736,6.811,3.473,10.689 l-0.994,14.548l13.529-5.442c3.607-1.45,7.632-1.45,11.238,0l13.527,5.442l-0.994-14.548c-0.265-3.878,0.979-7.707,3.473-10.689 l9.356-11.184l-14.143-3.549c-3.769-0.946-7.028-3.313-9.093-6.606l-7.746-12.354l-7.746,12.354 c-2.065,3.293-5.323,5.659-9.093,6.606L156.3,376.742z"/> <path style="fill:#FAF0E6;" d="M382.658,369.73h-85.835c-8.315,0-15.059-6.742-15.059-15.059s6.743-15.059,15.059-15.059h85.835 c8.315,0,15.059,6.742,15.059,15.059S390.975,369.73,382.658,369.73z"/> <path style="fill:#FAF0E6;" d="M352.523,422.368h-55.698c-8.315,0-15.059-6.742-15.059-15.059c0-8.317,6.743-15.059,15.059-15.059 h55.698c8.315,0,15.059,6.742,15.059,15.059C367.581,415.627,360.838,422.368,352.523,422.368z"/> </g> <g> <rect x="67.76" y="57.269" style="fill:#FAF0E6;" width="105.412" height="48.142"/> <rect x="338.824" y="57.269" style="fill:#FAF0E6;" width="105.412" height="48.142"/> </g> <path style="fill:#FAF0E6;" d="M323.765,105.412c0,8.317,6.743,15.059,15.059,15.059H444.24c8.315,0,15.059-6.742,15.059-15.059 V57.27c0-8.317-6.743-15.059-15.059-15.059h-90.357V15.059C353.882,6.742,347.139,0,338.824,0H173.176 c-8.315,0-15.059,6.742-15.059,15.059v27.153H67.76c-8.315,0-15.059,6.742-15.059,15.059v48.142v391.529 c0,8.317,6.743,15.059,15.059,15.059h376.48c8.315,0,15.059-6.742,15.059-15.059V191.923c0-8.317-6.743-15.059-15.059-15.059 s-15.059,6.742-15.059,15.059v289.959H82.819V120.471h90.357h105.969c8.315,0,15.059-6.742,15.059-15.059 s-6.743-15.059-15.059-15.059h-90.91V57.27V30.118h135.529V57.27V105.412z M82.819,72.329h75.299v18.024H82.819V72.329z M429.181,90.353h-75.299V72.329h75.299V90.353z"/> </g>
</svg>